<svg xmlns="http://www.w3.org/2000/svg" viewBox="0 0 1974.06055 488.52002">
  <defs>
    <style>
      .cls-1 {
        fill: #f54144;
      }

      .cls-2 {
        fill: #f0722b;
      }
    </style>
  </defs>
  <g id="Layer_2" data-name="Layer 2">
    <g>
      <path class="cls-1" d="M218.59375,229.85986a7.98142,7.98142,0,0,1,5.86523-2.415h80.04a8.2457,8.2457,0,0,1,8.2793,8.27979V702.165a8.24734,8.24734,0,0,1-8.2793,8.28027H213.419q-6.90528,0-8.96973-6.90039L118.88867,436.51465c-.46387-1.37988-1.27246-1.95117-2.415-1.72461a2.12582,2.12582,0,0,0-1.72461,2.41455l.68946,264.96045a8.24734,8.24734,0,0,1-8.2793,8.28027h-80.04a8.24734,8.24734,0,0,1-8.28027-8.28027V235.72461a8.24571,8.24571,0,0,1,8.28027-8.27979h90.38965q6.88916,0,8.96973,6.89991l86.25,267.03027c.45312,1.37988,1.26171,1.96191,2.415,1.72461a2.12874,2.12874,0,0,0,1.72559-2.41455l-.69043-264.96045A7.97387,7.97387,0,0,1,218.59375,229.85986Z" transform="translate(-18.83887 -227.44482)"/>
      <path class="cls-1" d="M567.38379,702.85547l-11.04-66.24024q0-3.44531-4.13965-3.45019H464.57422q-4.14111,0-4.14063,3.45019l-11.04,66.24024q-.69434,7.59962-8.96972,7.58984H359.69336q-8.9751,0-6.89941-8.9707L454.22363,235.03467q1.37548-7.58423,8.96973-7.58985h93.15039q7.585,0,8.96973,7.58985L666.05371,701.47461l.69043,2.75977q0,6.21093-7.59082,6.21093h-82.7998Q568.07421,710.44531,567.38379,702.85547ZM476.99414,557.95508h62.09961c2.29687,0,3.21289-1.14258,2.75977-3.4502L509.42383,366.13477q-.69581-2.06984-2.07031-2.06983-1.39014,0-2.06934,2.06983L474.2334,554.50488C474.2334,556.8125,475.15039,557.95508,476.99414,557.95508Z" transform="translate(-18.83887 -227.44482)"/>
      <path class="cls-1" d="M886.84961,703.54492,833.71973,513.10547c-.92676-1.834-2.06934-2.76074-3.4502-2.76074h-23.46c-2.30664,0-3.44922,1.15332-3.44922,3.45019V702.165a8.24734,8.24734,0,0,1-8.28027,8.28027H714.34961a8.24734,8.24734,0,0,1-8.2793-8.28027V235.72461a8.2457,8.2457,0,0,1,8.2793-8.27979H853.72949q37.93945,0,67.62012,18.28516,29.66016,18.29,45.88574,51.40479,16.20411,33.1201,16.21485,75.8999,0,40.72119-15.5254,71.76025-15.5244,31.04956-43.125,48.29981a5.1474,5.1474,0,0,0-2.07031,1.72509,2.26478,2.26478,0,0,0,0,2.415L986.21,700.78516l.69043,2.75976q0,6.90528-7.59082,6.90039h-82.7998Q888.90868,710.44531,886.84961,703.54492ZM803.36035,314.38477V432.375c0,2.30713,1.14258,3.44971,3.44922,3.44971h31.05078q21.37792,0,34.84473-16.90479,13.45458-16.8999,13.45508-45.19531,0-28.97973-13.45508-45.88477-13.45459-16.8999-34.84473-16.90478H806.80957C804.50293,310.93506,803.36035,312.08838,803.36035,314.38477Z" transform="translate(-18.83887 -227.44482)"/>
      <path class="cls-1" d="M1066.58984,676.98047q-37.61571-38.9751-37.60449-103.8457V235.72461a8.24571,8.24571,0,0,1,8.28027-8.27979h80.7295a8.24571,8.24571,0,0,1,8.28027,8.27979V582.79492q0,22.08984,11.04,35.87988,11.02881,13.81056,28.97949,13.79981,17.93555,0,28.63574-13.79981,10.689-13.79442,10.69434-35.87988V235.72461a8.24571,8.24571,0,0,1,8.28027-8.27979h80.73047a8.2457,8.2457,0,0,1,8.2793,8.27979V573.13477q0,64.86621-37.60449,103.8457-37.61572,38.98974-99.01563,38.98437Q1104.19581,715.96484,1066.58984,676.98047Z" transform="translate(-18.83887 -227.44482)"/>
      <path class="cls-2" d="M1592.707,227.44482h80.04a8.24571,8.24571,0,0,1,8.28027,8.27979V702.165a8.24734,8.24734,0,0,1-8.28027,8.28027h-80.72949a8.24734,8.24734,0,0,1-8.28028-8.28027V392.355c0-1.833-.46386-2.76025-1.37988-2.76025-.92773,0-1.84375.68994-2.75976,2.07031l-53.82032,95.21973c-2.30761,3.687-4.13964,5.52-5.5205,5.52-1.37989,0-3.22364-1.833-5.51954-5.52L1460.917,391.665c-.92676-1.38037-1.84375-2.07031-2.75976-2.07031-.92676,0-1.37989.92724-1.37989,2.76025V702.165a8.24734,8.24734,0,0,1-8.28027,8.28027h-80.72949a8.24734,8.24734,0,0,1-8.28028-8.28027V235.72461a8.24571,8.24571,0,0,1,8.28028-8.27979h79.34961a11.424,11.424,0,0,1,10.34961,5.52l61.41015,109.71q2.06984,2.76563,4.14063,0l59.33984-109.71Q1585.10694,227.45043,1592.707,227.44482Z" transform="translate(-18.83887 -227.44482)"/>
      <path class="cls-2" d="M1990.48438,308.52a7.97418,7.97418,0,0,1-5.86524,2.415h-144.21c-2.30664,0-3.44922,1.15332-3.44922,3.44971v109.02c0,2.30712,1.14258,3.45019,3.44922,3.45019H1923.21a8.2457,8.2457,0,0,1,8.2793,8.27979v66.92968a8.2457,8.2457,0,0,1-8.2793,8.28028h-82.80078c-2.30664,0-3.44922,1.15332-3.44922,3.45019v109.71c0,2.30762,1.14258,3.4502,3.44922,3.4502h144.21a8.244,8.244,0,0,1,8.28027,8.2793V702.165a8.24733,8.24733,0,0,1-8.28027,8.28027H1747.94922a8.24734,8.24734,0,0,1-8.2793-8.28027V235.72461a8.2457,8.2457,0,0,1,8.2793-8.27979h236.66992a8.24569,8.24569,0,0,1,8.28027,8.27979v66.93018A7.98219,7.98219,0,0,1,1990.48438,308.52Z" transform="translate(-18.83887 -227.44482)"/>
    </g>
  </g>
</svg>
