<?xml version="1.0" standalone="no"?>
<!DOCTYPE svg PUBLIC "-//W3C//DTD SVG 20010904//EN"
 "http://www.w3.org/TR/2001/REC-SVG-20010904/DTD/svg10.dtd">
<svg version="1.0" xmlns="http://www.w3.org/2000/svg"
 width="639.000000pt" height="640.000000pt" viewBox="0 0 639.000000 640.000000"
 preserveAspectRatio="xMidYMid meet">
<metadata>
Created by potrace 1.16, written by Peter Selinger 2001-2019
</metadata>
<g transform="translate(0.000000,640.000000) scale(0.100000,-0.100000)"
fill="#000000" stroke="none">
<path d="M1175 3748 c-3 -7 -4 -242 -3 -523 l3 -510 98 -3 97 -3 0 302 c0 166
3 299 8 295 4 -4 50 -138 102 -299 l96 -292 112 -3 112 -3 0 526 0 526 -97 -3
-98 -3 -3 -297 c-1 -164 -6 -298 -10 -298 -4 0 -50 134 -102 298 l-96 297
-107 3 c-80 2 -109 -1 -112 -10z"/>
<path d="M2119 3758 c-16 -47 -225 -1035 -220 -1041 4 -4 50 -6 102 -5 l94 3
14 83 14 83 106 -3 105 -3 16 -80 15 -80 103 -3 c58 -1 102 1 102 7 0 18 -219
1021 -225 1031 -5 8 -223 16 -226 8z m149 -499 c18 -102 32 -193 32 -202 0
-14 -11 -17 -75 -17 -73 0 -75 1 -70 23 6 28 65 382 65 393 0 4 4 4 8 -1 5 -6
23 -94 40 -196z"/>
<path d="M2665 3748 c-3 -7 -4 -242 -3 -523 l3 -510 94 -3 c69 -2 97 1 103 10
4 7 8 104 8 216 l0 203 33 -3 32 -3 60 -210 60 -210 103 -3 c85 -2 102 0 102
12 0 8 -29 108 -65 221 -36 114 -65 211 -65 217 0 6 16 27 36 46 20 20 48 61
62 91 22 47 26 70 26 141 -1 144 -57 245 -163 294 -41 19 -68 21 -234 24 -148
3 -188 1 -192 -10z m331 -183 c49 -34 68 -131 40 -199 -20 -48 -51 -66 -113
-66 l-53 0 0 140 0 140 53 0 c30 0 62 -6 73 -15z"/>
<path d="M3364 3746 c-3 -8 -4 -196 -2 -418 3 -399 3 -404 27 -455 26 -59 94
-127 149 -150 47 -20 163 -22 225 -4 69 20 140 87 166 157 20 52 21 75 21 470
l0 415 -97 -3 -98 -3 -5 -405 c-5 -366 -7 -409 -23 -433 -31 -48 -103 -48
-134 0 -16 24 -18 67 -23 433 l-5 405 -98 3 c-77 2 -98 0 -103 -12z"/>
<path d="M4075 3738 c-3 -13 -4 -248 -3 -523 l3 -500 100 0 100 0 5 350 5 350
65 -112 c35 -62 67 -113 72 -113 4 0 35 51 70 113 l63 112 5 -350 5 -350 100
0 100 0 0 520 0 520 -97 3 -97 3 -24 -38 c-13 -21 -46 -80 -72 -131 -57 -107
-48 -110 -122 28 -80 148 -70 140 -178 140 -90 0 -95 -1 -100 -22z"/>
<path d="M4915 3748 c-3 -7 -4 -242 -3 -523 l3 -510 268 -3 267 -2 0 90 0 90
-165 0 -165 0 0 125 0 124 98 3 97 3 3 88 3 87 -101 0 -100 0 0 130 0 130 165
0 165 0 0 90 0 90 -265 0 c-203 0 -267 -3 -270 -12z"/>
</g>
</svg>
